<svg height="512" viewBox="0 0 497 497" width="512" xmlns="http://www.w3.org/2000/svg"><path d="M497 128.5v312c0 11.046-8.954 20-20 20H20c-11.046 0-20-8.954-20-20v-312z" fill="#faf8f8"/><path d="M290.498 294.5c0-23.196-18.804-42-42-42a41.823 41.823 0 00-19.482 4.782c-13.386 7.021-19.327 21.053-19.327 37.218 0 23.196 15.613 36.457 38.809 36.457 16.214 0 30.282-3.645 37.282-17.099a41.814 41.814 0 004.718-19.358z" fill="#dc4955"/><path d="M286.468 312.47c-6.73 14.21-21.2 24.03-37.97 24.03-23.2 0-42-18.8-42-42 0-16.77 9.82-31.24 24.03-37.97-2.59 5.45-4.03 11.54-4.03 17.97 0 23.2 18.8 42 42 42 6.43 0 12.52-1.44 17.97-4.03z" fill="#d82f3c"/><path d="M429.496 294.5c0-23.196-18.804-42-42-42a41.823 41.823 0 00-19.482 4.782c-13.386 7.021-19.327 21.053-19.327 37.218 0 23.196 15.613 36.457 38.809 36.457 16.214 0 30.282-3.645 37.282-17.099a41.814 41.814 0 004.718-19.358z" fill="#b7e546"/><path d="M425.466 312.47c-6.73 14.21-21.2 24.03-37.97 24.03-23.2 0-42-18.8-42-42 0-16.77 9.82-31.24 24.03-37.97-2.59 5.45-4.03 11.54-4.03 17.97 0 23.2 18.8 42 42 42 6.43 0 12.52-1.44 17.97-4.03z" fill="#abd641"/><path d="M497 148.5v-20l-276.011-12.798L0 128.5v312c0 11.046 8.954 20 20 20h15c-8.28 0-15-6.72-15-15v-291a6 6 0 016-6z" fill="#f0e9e6"/><path d="M497 56.5V129H0V56.5c0-11.046 8.954-20 20-20h457c11.046 0 20 8.954 20 20z" fill="#5d748a"/><g fill="#3f597d"><path d="M227.758 108.5c-8.255 0-14.947-6.716-14.947-15s6.692-15 14.947-15h208.315c8.255 0 14.947 6.716 14.947 15s-6.692 15-14.947 15z"/><ellipse cx="160.869" cy="93.5" rx="14.947" ry="15"/><path d="M171.361 104.184l12.874-12.869-13.139 1.179zm-20.769-21.576l12.562-12.516-2.693 10.408z"/><ellipse cx="98.034" cy="93.5" rx="14.947" ry="15"/><path d="M108.553 104.157l12.382-12.499-12.674.836zM87.757 82.608l12.371-12.459L97.626 80.5z"/><ellipse cx="32.947" cy="93.5" rx="14.947" ry="15"/><path d="M43.769 103.846L56.49 90.66l-13.139 1.381zM22.67 82.608L34.292 70.57l-1.753 9.93z"/></g><ellipse cx="173.849" cy="80.5" fill="#b7e546" rx="14.947" ry="15"/><path d="M217.514 82.577l12.971-12.991-3.025 14.276zm229.316 21.338l13.149-13.179-10.185 3.381z" fill="#3f597d"/><ellipse cx="110.946" cy="80.5" fill="#ffbf54" rx="14.947" ry="15"/><ellipse cx="45.495" cy="80.5" fill="#dc4955" rx="14.947" ry="15"/><path d="M240.737 95.5c-8.255 0-14.947-6.716-14.947-15s6.692-15 14.947-15h208.315c8.255 0 14.947 6.716 14.947 15s-6.692 15-14.947 15z" fill="#faf8f8"/><path d="M135.893 215l226.628 2c5.523 0 10-4.477 10-10l3.479-7v-30c0-5.523-4.477-10-10-10H142l-6.107 5c-5.523 0-10 4.477-10 10v30c0 5.523 4.477 10 10 10z" fill="#aad8de"/><path d="M376 200v10c0 5.523-4.477 10-10 10H132c-5.523 0-10-4.477-10-10v-40c0-5.523 4.477-10 10-10h10v33a7 7 0 007 7z" fill="#94ccd4"/><path d="M151.5 294.5c0-23.196-18.804-42-42-42a41.823 41.823 0 00-19.482 4.782c-13.386 7.021-19.327 21.053-19.327 37.218 0 23.196 15.613 36.457 38.809 36.457 16.214 0 30.282-3.645 37.282-17.099A41.814 41.814 0 00151.5 294.5z" fill="#ffbf54"/><path d="M147.47 312.47c-6.73 14.21-21.2 24.03-37.97 24.03-23.2 0-42-18.8-42-42 0-16.77 9.82-31.24 24.03-37.97-2.59 5.45-4.03 11.54-4.03 17.97 0 23.2 18.8 42 42 42 6.43 0 12.52-1.44 17.97-4.03z" fill="#ffa442"/><path d="M149.5 374h-70a7.5 7.5 0 010-15h70a7.5 7.5 0 010 15zm0 30h-80a7.5 7.5 0 010-15h80a7.5 7.5 0 010 15zm0 30h-80a7.5 7.5 0 010-15h80a7.5 7.5 0 010 15zm139-60h-70a7.5 7.5 0 010-15h70c4.143 0 7.5 3.358 7.5 7.5s-3.357 7.5-7.5 7.5zm0 30h-80a7.5 7.5 0 010-15h80c4.143 0 7.5 3.358 7.5 7.5s-3.357 7.5-7.5 7.5zm0 30h-80a7.5 7.5 0 010-15h80c4.143 0 7.5 3.358 7.5 7.5s-3.357 7.5-7.5 7.5zm139-60h-70c-4.143 0-7.5-3.358-7.5-7.5s3.357-7.5 7.5-7.5h70c4.143 0 7.5 3.358 7.5 7.5s-3.357 7.5-7.5 7.5zm0 30h-80c-4.143 0-7.5-3.358-7.5-7.5s3.357-7.5 7.5-7.5h80c4.143 0 7.5 3.358 7.5 7.5s-3.357 7.5-7.5 7.5zm0 30h-80c-4.143 0-7.5-3.358-7.5-7.5s3.357-7.5 7.5-7.5h80c4.143 0 7.5 3.358 7.5 7.5s-3.357 7.5-7.5 7.5z" fill="#f0e9e6"/></svg>